# xmcd
#
# Track frame offsets: 
#        150
#        16510
#        31125
#        58312
#        75552
#        109100
#        139310
#        156992
#        181487
#        200642
#
# Disc length: 2887 seconds
#
# Revision: 0
# Processed by: cddbd v1.5.2PL0 Copyright (c) Steve Scherf et al.
# Submitted via: ExactAudioCopy v0.99pb5
#
DISCID=820b450a
DTITLE=Blue Mother Tupelo - My Side Of The Road
DYEAR=1998
DGENRE=Blues Rock
TTITLE0=Three Coins
TTITLE1=Goin' Down Slow
TTITLE2=Why Wonder?
TTITLE3=Long, Hot Summer Night
TTITLE4=My Side Of The Road
TTITLE5=Colorado
TTITLE6=I'm Gonna Ride
TTITLE7=I Get The Blues Sometime
TTITLE8=If Ya Need
TTITLE9=Penneyrille
EXTD=
EXTT0=
EXTT1=
EXTT2=
EXTT3=
EXTT4=
EXTT5=
EXTT6=
EXTT7=
EXTT8=
EXTT9=
PLAYORDER=
